<svg xmlns="http://www.w3.org/2000/svg" width="150" height="150" viewBox="0 0 150 150">
  <g id="Group_90" data-name="Group 90" transform="translate(-1020 -194)">
    <circle id="Ellipse_32" data-name="Ellipse 32" cx="75" cy="75" r="75" transform="translate(1020 194)" fill="rgba(255,233,110,0.51)"/>
    <path id="Icon_awesome-exclamation" data-name="Icon awesome-exclamation" d="M21.125,54a10,10,0,1,1-10-10A10.011,10.011,0,0,1,21.125,54ZM2.283,3.15l1.7,34a3,3,0,0,0,3,2.85h8.293a3,3,0,0,0,3-2.85l1.7-34a3,3,0,0,0-3-3.15H5.279A3,3,0,0,0,2.283,3.15Z" transform="translate(1083.875 237)" fill="#232e43"/>
  </g>
</svg>
