<svg xmlns="http://www.w3.org/2000/svg" width="21.625" height="21.625" viewBox="0 0 21.625 21.625">
  <g id="Icon_ionic-ios-chatbubbles" data-name="Icon ionic-ios-chatbubbles" transform="translate(-3.375 -3.375)">
    <path id="Path_163" data-name="Path 163" d="M24.536,17.546a1.259,1.259,0,0,1,.172-.634,1.75,1.75,0,0,1,.109-.161,8.423,8.423,0,0,0,1.435-4.694,8.843,8.843,0,0,0-9.029-8.681A8.967,8.967,0,0,0,8.37,10.284a8.354,8.354,0,0,0-.192,1.778,8.818,8.818,0,0,0,8.889,8.79,10.706,10.706,0,0,0,2.454-.4c.587-.161,1.17-.374,1.32-.431a1.374,1.374,0,0,1,.483-.088,1.351,1.351,0,0,1,.525.1L24.8,21.08a.7.7,0,0,0,.2.052.414.414,0,0,0,.416-.416.668.668,0,0,0-.026-.14Z" transform="translate(-1.252 0)" fill="rgba(0,0,0,0.58)"/>
    <path id="Path_164" data-name="Path 164" d="M17.436,23.767c-.187.052-.426.109-.686.166a9.594,9.594,0,0,1-1.767.234,8.818,8.818,0,0,1-8.889-8.79,9.828,9.828,0,0,1,.078-1.112c.031-.224.068-.447.12-.665.052-.234.114-.468.182-.7l-.416.369a7.736,7.736,0,0,0-2.682,5.817,7.65,7.65,0,0,0,1.289,4.263c.12.182.187.322.166.416s-.619,3.223-.619,3.223a.417.417,0,0,0,.14.4.423.423,0,0,0,.265.094.373.373,0,0,0,.151-.031L7.684,26.3a.812.812,0,0,1,.624.01,8.749,8.749,0,0,0,3.155.624,8.164,8.164,0,0,0,6.243-2.864s.166-.229.359-.5C17.873,23.642,17.655,23.71,17.436,23.767Z" transform="translate(0 -2.484)" fill="rgba(0,0,0,0.58)"/>
  </g>
</svg>
