<svg xmlns="http://www.w3.org/2000/svg" width="21.625" height="21.625" viewBox="0 0 21.625 21.625">
  <path id="Icon_awesome-phone" data-name="Icon awesome-phone" d="M20.838,1.039,16.446.025a1.02,1.02,0,0,0-1.161.587l-2.027,4.73a1.011,1.011,0,0,0,.291,1.183L16.108,8.62A15.653,15.653,0,0,1,8.624,16.1L6.529,13.544a1.013,1.013,0,0,0-1.183-.291L.616,15.28a1.026,1.026,0,0,0-.591,1.166l1.014,4.392a1.013,1.013,0,0,0,.988.786,19.6,19.6,0,0,0,19.6-19.6A1.012,1.012,0,0,0,20.838,1.039Z" transform="translate(0.001 0.001)" fill="rgba(35,46,67,0.87)"/>
</svg>
