<svg xmlns="http://www.w3.org/2000/svg" width="69.238" height="9.694" viewBox="0 0 69.238 9.694">
  <g id="Group_115" data-name="Group 115" transform="translate(-127.5 -2614.5)">
    <path id="Icon_feather-star" data-name="Icon feather-star" d="M7.571,3,8.983,5.861l3.158.462L9.856,8.549l.539,3.145L7.571,10.208,4.746,11.694l.539-3.145L3,6.323l3.158-.462Z" transform="translate(125 2612)" fill="#fd5a5f" stroke="#fd5a5f" stroke-linecap="round" stroke-linejoin="round" stroke-width="1"/>
    <path id="Icon_feather-star-2" data-name="Icon feather-star" d="M7.571,3,8.983,5.861l3.158.462L9.856,8.549l.539,3.145L7.571,10.208,4.746,11.694l.539-3.145L3,6.323l3.158-.462Z" transform="translate(136.819 2612)" fill="#fd5a5f" stroke="#fd5a5f" stroke-linecap="round" stroke-linejoin="round" stroke-width="1"/>
    <path id="Icon_feather-star-3" data-name="Icon feather-star" d="M7.571,3,8.983,5.861l3.158.462L9.856,8.549l.539,3.145L7.571,10.208,4.746,11.694l.539-3.145L3,6.323l3.158-.462Z" transform="translate(148.638 2612)" fill="#fd5a5f" stroke="#fd5a5f" stroke-linecap="round" stroke-linejoin="round" stroke-width="1"/>
    <path id="Icon_feather-star-4" data-name="Icon feather-star" d="M7.571,3,8.983,5.861l3.158.462L9.856,8.549l.539,3.145L7.571,10.208,4.746,11.694l.539-3.145L3,6.323l3.158-.462Z" transform="translate(160.458 2612)" fill="#ebebeb" stroke="#ebebeb" stroke-linecap="round" stroke-linejoin="round" stroke-width="1"/>
    <path id="Icon_feather-star-5" data-name="Icon feather-star" d="M7.571,3,8.983,5.861l3.158.462L9.856,8.549l.539,3.145L7.571,10.208,4.746,11.694l.539-3.145L3,6.323l3.158-.462Z" transform="translate(172.277 2612)" fill="#ebebeb" stroke="#ebebeb" stroke-linecap="round" stroke-linejoin="round" stroke-width="1"/>
    <path id="Icon_feather-star-6" data-name="Icon feather-star" d="M7.571,3,8.983,5.861l3.158.462L9.856,8.549l.539,3.145L7.571,10.208,4.746,11.694l.539-3.145L3,6.323l3.158-.462Z" transform="translate(184.096 2612)" fill="#ebebeb" stroke="#ebebeb" stroke-linecap="round" stroke-linejoin="round" stroke-width="1"/>
  </g>
</svg>
