<svg xmlns="http://www.w3.org/2000/svg" width="16.845" height="16.731" viewBox="0 0 16.845 16.731">
  <g id="Icon_feather-share-2" data-name="Icon feather-share-2" transform="translate(0.5 0.5)">
    <path id="Path_103" data-name="Path 103" d="M27.782,5.36a2.512,2.512,0,0,1-2.641,2.36A2.512,2.512,0,0,1,22.5,5.36,2.512,2.512,0,0,1,25.141,3a2.512,2.512,0,0,1,2.641,2.36Z" transform="translate(-11.937 -3)" fill="none" stroke="#4d4d4d" stroke-linecap="round" stroke-linejoin="round" stroke-width="1"/>
    <path id="Path_104" data-name="Path 104" d="M9.782,15.86a2.512,2.512,0,0,1-2.641,2.36A2.512,2.512,0,0,1,4.5,15.86,2.512,2.512,0,0,1,7.141,13.5,2.512,2.512,0,0,1,9.782,15.86Z" transform="translate(-4.5 -7.994)" fill="none" stroke="#4d4d4d" stroke-linecap="round" stroke-linejoin="round" stroke-width="1"/>
    <path id="Path_105" data-name="Path 105" d="M27.782,26.36a2.512,2.512,0,0,1-2.641,2.36A2.512,2.512,0,0,1,22.5,26.36,2.512,2.512,0,0,1,25.141,24,2.512,2.512,0,0,1,27.782,26.36Z" transform="translate(-11.937 -12.988)" fill="none" stroke="#4d4d4d" stroke-linecap="round" stroke-linejoin="round" stroke-width="1"/>
    <path id="Path_106" data-name="Path 106" d="M12.885,20.265,18.9,23.4" transform="translate(-7.964 -11.212)" fill="none" stroke="#4d4d4d" stroke-linecap="round" stroke-linejoin="round" stroke-width="1"/>
    <path id="Path_107" data-name="Path 107" d="M18.888,9.765l-6,3.13" transform="translate(-7.964 -6.218)" fill="none" stroke="#4d4d4d" stroke-linecap="round" stroke-linejoin="round" stroke-width="1"/>
  </g>
</svg>
