<svg xmlns="http://www.w3.org/2000/svg" width="15" height="15" viewBox="0 0 15 15">
  <g id="Icon_material-dashboard" data-name="Icon material-dashboard" transform="translate(-4.5 -4.5)" fill="none">
    <path d="M4.5,12.833h6.667V4.5H4.5Zm0,6.667h6.667v-5H4.5Zm8.333,0H19.5V11.167H12.833Zm0-15v5H19.5v-5Z" stroke="none"/>
    <path d="M 18.10000038146973 18.10000038146973 L 18.10000038146973 12.56667041778564 L 14.23332977294922 12.56667041778564 L 14.23332977294922 18.10000038146973 L 18.10000038146973 18.10000038146973 M 9.766670227050781 18.10000038146973 L 9.766670227050781 15.89999961853027 L 5.900000095367432 15.89999961853027 L 5.900000095367432 18.10000038146973 L 9.766670227050781 18.10000038146973 M 9.766670227050781 11.43332958221436 L 9.766670227050781 5.900000095367432 L 5.900000095367432 5.900000095367432 L 5.900000095367432 11.43332958221436 L 9.766670227050781 11.43332958221436 M 18.10000038146973 8.100000381469727 L 18.10000038146973 5.900000095367432 L 14.23332977294922 5.900000095367432 L 14.23332977294922 8.100000381469727 L 18.10000038146973 8.100000381469727 M 19.5 19.5 L 12.83333015441895 19.5 L 12.83333015441895 11.16666984558105 L 19.5 11.16666984558105 L 19.5 19.5 Z M 11.16666984558105 19.5 L 4.5 19.5 L 4.5 14.5 L 11.16666984558105 14.5 L 11.16666984558105 19.5 Z M 11.16666984558105 12.83333015441895 L 4.5 12.83333015441895 L 4.5 4.5 L 11.16666984558105 4.5 L 11.16666984558105 12.83333015441895 Z M 19.5 9.5 L 12.83333015441895 9.5 L 12.83333015441895 4.5 L 19.5 4.5 L 19.5 9.5 Z" stroke="none" fill="#484848"/>
  </g>
</svg>
