<svg xmlns="http://www.w3.org/2000/svg" width="40" height="40" viewBox="0 0 40 40">
  <g id="Group_260" data-name="Group 260" transform="translate(-121 -913)">
    <rect id="Rectangle_235" data-name="Rectangle 235" width="40" height="40" transform="translate(121 913)" fill="none"/>
    <path id="Icon_awesome-signature" data-name="Icon awesome-signature" d="M16.531,7.894c-1.374.093-3.334,1.451-4.326,1.9a5.49,5.49,0,0,1-2.018.647c-.6,0-.69-.43-.565-1.377.029-.212.31-2.1-1.133-2.018-.666.04-1.705.658-4.5,3.342l1.1-2.751a2.292,2.292,0,0,0-3.44-2.727L.2,5.887a.427.427,0,0,0-.13.586l.456.716a.422.422,0,0,0,.586.13L2.648,6.287a.592.592,0,0,1,.867.719L.911,13.52A.847.847,0,0,0,1.7,14.685a.839.839,0,0,0,.6-.249c1.119-1.119,4.1-4,5.6-5.193a2.753,2.753,0,0,0,.546,2.223,2.238,2.238,0,0,0,1.737.671,6.708,6.708,0,0,0,2.713-.8c.875-.393,2.626-1.66,3.671-1.745a.426.426,0,0,0,.4-.419V8.324a.421.421,0,0,0-.44-.43Z" transform="translate(132.513 923.408)" fill="rgba(0,0,0,0.75)"/>
  </g>
</svg>
