<svg xmlns="http://www.w3.org/2000/svg" width="19.432" height="19.432" viewBox="0 0 19.432 19.432">
  <path id="Icon_feather-message-circle" data-name="Icon feather-message-circle" d="M22.432,12.968a8.348,8.348,0,0,1-.9,3.786,8.468,8.468,0,0,1-7.571,4.682,8.348,8.348,0,0,1-3.786-.9L4.5,22.432l1.893-5.678a8.348,8.348,0,0,1-.9-3.786A8.468,8.468,0,0,1,10.179,5.4a8.348,8.348,0,0,1,3.786-.9h.5a8.448,8.448,0,0,1,7.97,7.97Z" transform="translate(-3.75 -3.75)" fill="none" stroke="#232e43" stroke-linecap="round" stroke-linejoin="round" stroke-width="1.5"/>
</svg>
