<svg id="google" xmlns="http://www.w3.org/2000/svg" width="15.04" height="15.04" viewBox="0 0 15.04 15.04">
  <path id="Path_119" data-name="Path 119" d="M3.525,104.791a3.97,3.97,0,0,1,.562-2.041v-2.535H1.552a7.524,7.524,0,0,0,0,9.152H4.087v-2.535A3.97,3.97,0,0,1,3.525,104.791Z" transform="translate(0 -97.271)" fill="#fbbd00"/>
  <path id="Path_120" data-name="Path 120" d="M197.762,373.52,196,375.283l1.762,1.762a7.463,7.463,0,0,0,4.576-1.552v-2.533h-2.533A3.994,3.994,0,0,1,197.762,373.52Z" transform="translate(-190.243 -362.006)" fill="#0f9d58"/>
  <path id="Path_121" data-name="Path 121" d="M55.358,325.477l-2.535,2.535a7.641,7.641,0,0,0,.651.741,7.471,7.471,0,0,0,5.317,2.2v-3.525A4,4,0,0,1,55.358,325.477Z" transform="translate(-51.271 -315.916)" fill="#31aa52"/>
  <path id="Path_122" data-name="Path 122" d="M263.52,199.048a7.585,7.585,0,0,0-.123-1.362l-.066-.361H256v3.525h3.568a3.977,3.977,0,0,1-1.524,1.634l2.533,2.533a7.638,7.638,0,0,0,.741-.651A7.471,7.471,0,0,0,263.52,199.048Z" transform="translate(-248.48 -191.528)" fill="#3c79e6"/>
  <path id="Path_123" data-name="Path 123" d="M200.587,4.695l.312.312,2.492-2.492L203.08,2.2A7.471,7.471,0,0,0,197.762,0L196,1.762l1.762,1.762A3.969,3.969,0,0,1,200.587,4.695Z" transform="translate(-190.243)" fill="#cf2d48"/>
  <path id="Path_124" data-name="Path 124" d="M58.79,3.525V0a7.471,7.471,0,0,0-5.317,2.2,7.633,7.633,0,0,0-.651.741l2.535,2.535A4,4,0,0,1,58.79,3.525Z" transform="translate(-51.27 0)" fill="#eb4132"/>
</svg>
