<svg xmlns="http://www.w3.org/2000/svg" width="12.846" height="15.04" viewBox="0 0 12.846 15.04">
  <g id="apple" transform="translate(-37.336)">
    <g id="Group_141" data-name="Group 141" transform="translate(43.51)">
      <g id="Group_140" data-name="Group 140">
        <path id="Path_125" data-name="Path 125" d="M250.59,0A3.529,3.529,0,0,0,248.3,1.237a3.065,3.065,0,0,0-.748,2.382,2.979,2.979,0,0,0,2.306-1.178A3.309,3.309,0,0,0,250.59,0Z" transform="translate(-247.522)"/>
      </g>
    </g>
    <g id="Group_143" data-name="Group 143" transform="translate(37.336 3.52)">
      <g id="Group_142" data-name="Group 142">
        <path id="Path_126" data-name="Path 126" d="M49.747,121.366a3.807,3.807,0,0,0-2.873-1.526c-1.349,0-1.919.646-2.857.646-.966,0-1.7-.644-2.867-.644a3.9,3.9,0,0,0-3.139,1.9c-1.088,1.686-.9,4.857.861,7.557.631.966,1.473,2.053,2.575,2.062.98.009,1.257-.629,2.585-.635s1.58.644,2.559.634c1.1-.008,1.991-1.213,2.622-2.179a10.836,10.836,0,0,0,.971-1.824A3.316,3.316,0,0,1,49.747,121.366Z" transform="translate(-37.336 -119.84)"/>
      </g>
    </g>
  </g>
</svg>
