<svg xmlns="http://www.w3.org/2000/svg" width="129.498" height="129.5" viewBox="0 0 129.498 129.5">
  <path id="Icon_awesome-cookie-bite" data-name="Icon awesome-cookie-bite" d="M129.124,64.7A32.356,32.356,0,0,1,97.136,32.363,32.355,32.355,0,0,1,64.8.381,33.377,33.377,0,0,0,44.634,3.624L27.149,12.532A33.442,33.442,0,0,0,12.533,27.153L3.655,44.575A33.549,33.549,0,0,0,.413,65.049L3.468,84.339a33.518,33.518,0,0,0,9.4,18.453l13.853,13.85a33.4,33.4,0,0,0,18.39,9.373l19.4,3.073a33.365,33.365,0,0,0,20.368-3.227l17.485-8.905a33.455,33.455,0,0,0,14.617-14.622l8.878-17.421A33.534,33.534,0,0,0,129.124,64.7ZM44.515,93.075a8.094,8.094,0,1,1,8.094-8.094A8.095,8.095,0,0,1,44.515,93.075Zm8.094-40.468A8.094,8.094,0,1,1,60.7,44.514,8.095,8.095,0,0,1,52.609,52.608ZM93.077,84.982a8.094,8.094,0,1,1,8.094-8.094A8.095,8.095,0,0,1,93.077,84.982Z" transform="translate(0 0)" fill="#d69a5f"/>
</svg>
