<svg xmlns="http://www.w3.org/2000/svg" width="22.545" height="22.545" viewBox="0 0 22.545 22.545">
  <path id="Icon_awesome-facebook-square" data-name="Icon awesome-facebook-square" d="M20.13,2.25H2.416A2.416,2.416,0,0,0,0,4.666V22.38A2.416,2.416,0,0,0,2.416,24.8H9.323V17.13H6.152V13.523h3.17v-2.75c0-3.128,1.862-4.855,4.714-4.855a19.207,19.207,0,0,1,2.794.244v3.07H15.257a1.8,1.8,0,0,0-2.034,1.949v2.343h3.461l-.554,3.608H13.223V24.8H20.13a2.416,2.416,0,0,0,2.416-2.416V4.666A2.416,2.416,0,0,0,20.13,2.25Z" transform="translate(0 -2.25)" fill="rgba(255,255,255,0.27)"/>
</svg>
