<svg xmlns="http://www.w3.org/2000/svg" width="16.4" height="16.4" viewBox="0 0 16.4 16.4">
  <g id="Icon_feather-settings" data-name="Icon feather-settings" transform="translate(-0.8 -0.8)">
    <path id="Path_170" data-name="Path 170" d="M17.763,15.632A2.132,2.132,0,1,1,15.632,13.5,2.132,2.132,0,0,1,17.763,15.632Z" transform="translate(-6.632 -6.632)" fill="none" stroke="#484848" stroke-linecap="round" stroke-linejoin="round" stroke-width="1.4"/>
    <path id="Path_171" data-name="Path 171" d="M14.045,11.045a1.125,1.125,0,0,0,.225,1.241l.041.041a1.364,1.364,0,1,1-1.93,1.93l-.041-.041a1.134,1.134,0,0,0-1.923.8v.116a1.364,1.364,0,1,1-2.727,0v-.061a1.125,1.125,0,0,0-.736-1.03,1.125,1.125,0,0,0-1.241.225l-.041.041a1.364,1.364,0,1,1-1.93-1.93l.041-.041a1.134,1.134,0,0,0-.8-1.923H2.864a1.364,1.364,0,1,1,0-2.727h.061a1.125,1.125,0,0,0,1.03-.736A1.125,1.125,0,0,0,3.73,5.714l-.041-.041a1.364,1.364,0,1,1,1.93-1.93l.041.041A1.125,1.125,0,0,0,6.9,4.009h.055a1.125,1.125,0,0,0,.682-1.03V2.864a1.364,1.364,0,1,1,2.727,0v.061a1.134,1.134,0,0,0,1.923.8l.041-.041a1.364,1.364,0,1,1,1.93,1.93l-.041.041A1.125,1.125,0,0,0,13.991,6.9v.055a1.125,1.125,0,0,0,1.03.682h.116a1.364,1.364,0,1,1,0,2.727h-.061a1.125,1.125,0,0,0-1.03.682Z" fill="none" stroke="#484848" stroke-linecap="round" stroke-linejoin="round" stroke-width="1.4"/>
  </g>
</svg>
