<svg xmlns="http://www.w3.org/2000/svg" width="22.545" height="22.545" viewBox="0 0 22.545 22.545">
  <path id="Icon_awesome-twitter-square" data-name="Icon awesome-twitter-square" d="M20.13,2.25H2.416A2.416,2.416,0,0,0,0,4.666V22.38A2.416,2.416,0,0,0,2.416,24.8H20.13a2.416,2.416,0,0,0,2.416-2.416V4.666A2.416,2.416,0,0,0,20.13,2.25Zm-2.461,7.992c.01.141.01.287.01.428A9.327,9.327,0,0,1,8.288,20.06a9.347,9.347,0,0,1-5.068-1.48,6.954,6.954,0,0,0,.8.04,6.617,6.617,0,0,0,4.1-1.409,3.3,3.3,0,0,1-3.085-2.29,3.557,3.557,0,0,0,1.49-.06A3.3,3.3,0,0,1,3.875,11.62v-.04A3.3,3.3,0,0,0,5.365,12,3.294,3.294,0,0,1,3.9,9.25a3.259,3.259,0,0,1,.448-1.666,9.372,9.372,0,0,0,6.8,3.452,3.308,3.308,0,0,1,5.631-3.014,6.468,6.468,0,0,0,2.094-.8,3.292,3.292,0,0,1-1.449,1.817,6.568,6.568,0,0,0,1.9-.513A6.947,6.947,0,0,1,17.669,10.242Z" transform="translate(0 -2.25)" fill="rgba(255,255,255,0.27)"/>
</svg>
